<svg width="400" height="140" viewBox="0 0 400 140" xmlns="http://www.w3.org/2000/svg">
  <defs>
    <style>
      @import url('https://fonts.googleapis.com/css2?family=Plus+Jakarta+Sans:wght@400;700;800&display=swap');
    </style>
  </defs>

  <!-- Monitor -->
  <rect x="10" y="5" width="100" height="75" rx="7" fill="#1E293B"/>
  <rect x="16" y="11" width="88" height="60" rx="4" fill="#0F172A"/>

  <!-- Líneas de código en pantalla -->
  <rect x="22" y="18" width="28" height="4" rx="1.5" fill="#6366F1"/>
  <rect x="22" y="26" width="46" height="4" rx="1.5" fill="#334155"/>
  <rect x="22" y="34" width="36" height="4" rx="1.5" fill="#334155"/>
  <rect x="22" y="42" width="22" height="4" rx="1.5" fill="#22C55E"/>
  <rect x="22" y="50" width="40" height="4" rx="1.5" fill="#334155"/>
  <rect x="22" y="58" width="30" height="4" rx="1.5" fill="#6366F1"/>

  <!-- Pie monitor -->
  <rect x="52" y="80" width="16" height="12" rx="2" fill="#1E293B"/>
  <rect x="40" y="91" width="40" height="5" rx="2.5" fill="#1E293B"/>

  <!-- Teclado -->
  <rect x="22" y="100" width="76" height="18" rx="4" fill="#1E293B"/>
  <rect x="27" y="104" width="7" height="5" rx="1.5" fill="#334155"/>
  <rect x="36" y="104" width="7" height="5" rx="1.5" fill="#334155"/>
  <rect x="45" y="104" width="7" height="5" rx="1.5" fill="#334155"/>
  <rect x="54" y="104" width="7" height="5" rx="1.5" fill="#334155"/>
  <rect x="63" y="104" width="7" height="5" rx="1.5" fill="#334155"/>
  <rect x="72" y="104" width="7" height="5" rx="1.5" fill="#334155"/>
  <rect x="27" y="112" width="7" height="5" rx="1.5" fill="#334155"/>
  <rect x="36" y="112" width="18" height="5" rx="1.5" fill="#6366F1"/>
  <rect x="56" y="112" width="7" height="5" rx="1.5" fill="#334155"/>
  <rect x="65" y="112" width="14" height="5" rx="1.5" fill="#334155"/>

  <!-- Nombre -->
  <text x="125" y="52" font-family="'Plus Jakarta Sans', 'Segoe UI', sans-serif" font-weight="800" font-size="32" fill="#0F172A" letter-spacing="-0.5">plantillas</text>
  <text x="125" y="85" font-family="'Plus Jakarta Sans', 'Segoe UI', sans-serif" font-weight="400" font-size="32" fill="#6366F1" letter-spacing="-0.5">web</text>
  <circle cx="310" cy="78" r="5" fill="#6366F1"/>

  <!-- Línea -->
  <line x1="125" y1="96" x2="390" y2="96" stroke="#E2E8F0" stroke-width="1"/>

  <!-- URL -->
  <text x="125" y="114" font-family="'Plus Jakarta Sans', 'Segoe UI', sans-serif" font-weight="400" font-size="11" fill="#94A3B8" letter-spacing="0.05em">plantillasweb.netlify.app  ·  chhc72@gmail.com</text>

</svg>
